<svg version="1.2" xmlns="http://www.w3.org/2000/svg" viewBox="0 0 2000 2000" width="2000" height="2000">
	<title>New Project</title>
	<style>
		.s0 { fill: #7ca6d8 } 
		.s1 { fill: #5a86c3 } 
		.s2 { fill: #3e5d94 } 
	</style>
	<g id="&lt;Group&gt;">
		<g id="&lt;Group&gt;">
			<path id="&lt;Path&gt;" class="s0" d="m1664.4 1000.5c-5.2-5.7-10.6-11.3-16.1-16.8l-400.7-400.6-417.5 417.4-582.6-582.6c-135.8-135.8-39.6-367.9 152.4-367.9h847.7c497 0 749.8 591.6 416.8 950.5z"/>
		</g>
		<path id="&lt;Path&gt;" class="s1" d="m1664.4 1000.5c-5.2 5.6-10.6 11.2-16.1 16.7l-400.7 400.8-417.5-417.5 417.5-417.4 400.7 400.6c5.5 5.5 10.9 11.1 16.1 16.8z"/>
		<g id="&lt;Group&gt;">
			<path id="&lt;Path&gt;" class="s2" d="m1247.6 1951h-847.7c-192 0-288.1-232.1-152.3-367.9l582.5-582.6 417.5 417.5 400.7-400.8c5.5-5.5 10.9-11.1 16.1-16.7 332.9 358.9 80.2 950.5-416.8 950.5z"/>
		</g>
	</g>
</svg>