<?xml version="1.0" encoding="UTF-8"?>
<svg version="1.1" xmlns="http://www.w3.org/2000/svg" width="333" height="333">
<path d="M0 0 C9.21216855 6.91667737 15.71814698 15.30247023 18.1015625 26.73828125 C19.72378332 38.56697469 16.86513501 50.54848957 9.62890625 60.10546875 C5.43052536 65.09258656 1.14484973 68.73947365 -4.6171875 71.7890625 C-3.67359375 72.26214844 -2.73 72.73523438 -1.7578125 73.22265625 C6.1351965 77.26521542 13.04501004 81.52847497 19.796875 87.296875 C22.27241288 89.11332094 22.27241288 89.11332094 24.921875 88.2265625 C27.39309141 86.78305831 29.77120367 85.28108766 32.1328125 83.6640625 C46.91491153 74.12722442 63.93157061 67.21990077 81.3828125 64.7890625 C82.97792835 69.73630833 83.65637859 73.96079114 83.71875 79.20703125 C83.72708359 79.89792343 83.73541718 80.58881561 83.7440033 81.30064392 C83.76334953 83.5261777 83.7634658 85.75095846 83.7578125 87.9765625 C83.75760101 88.7371698 83.75738953 89.4977771 83.75717163 90.28143311 C83.72316788 102.5205279 82.75838675 113.97045273 79.3828125 125.7890625 C79.19025879 126.49611328 78.99770508 127.20316406 78.79931641 127.93164062 C69.97585432 159.98211108 51.16286207 185.99520015 24.94140625 206.03125 C12.56557969 215.52269121 0.85050207 225.5763806 -7.6171875 238.7890625 C-8.19339844 239.68238281 -8.76960938 240.57570313 -9.36328125 241.49609375 C-14.49162735 249.84536101 -18.07024286 258.68990968 -21.6171875 267.7890625 C-23.9453125 267.69921875 -23.9453125 267.69921875 -26.6171875 266.7890625 C-28.1015625 263.97265625 -28.1015625 263.97265625 -29.3671875 260.2265625 C-37.60374761 237.54446975 -52.69834315 220.35568444 -71.6171875 205.7890625 C-87.86575743 192.79020656 -101.30320852 179.99769205 -111.6171875 161.7890625 C-112.61878906 160.09910156 -112.61878906 160.09910156 -113.640625 158.375 C-129.42688675 131.05363947 -134.50424455 96.83552507 -129.6171875 65.7890625 C-125.23395737 64.4394922 -121.79035994 65.49628518 -117.4921875 66.7265625 C-116.70247559 66.95037598 -115.91276367 67.17418945 -115.09912109 67.40478516 C-100.66942903 71.68712695 -86.23562513 78.27164977 -74.1796875 87.3515625 C-73.3340625 87.8259375 -72.4884375 88.3003125 -71.6171875 88.7890625 C-67.9393916 87.70841143 -65.44080024 86.00810692 -62.5546875 83.5390625 C-58.08921139 79.9441666 -53.39019285 77.48951076 -48.21875 75.05078125 C-45.47745736 73.7941429 -45.47745736 73.7941429 -42.6171875 71.7890625 C-43.59558594 71.15291016 -43.59558594 71.15291016 -44.59375 70.50390625 C-55.15716055 63.4148918 -62.66134442 54.71343608 -65.3359375 41.90625 C-66.85672118 30.45812842 -64.9675822 20.14724432 -58.15625 10.71875 C-56.13800356 8.18825827 -54.02367008 5.95489682 -51.6171875 3.7890625 C-50.34875 2.5515625 -50.34875 2.5515625 -49.0546875 1.2890625 C-34.97286293 -10.29910564 -14.7487723 -9.62701214 0 0 Z M-44.62890625 16.41796875 C-49.2905097 21.97709114 -51.39758226 29.24195691 -50.99609375 36.46875 C-49.35910023 46.4932258 -45.19534102 52.64120476 -37.1796875 58.6015625 C-30.24001422 61.81750865 -22.92071141 63.09690382 -15.5546875 60.5390625 C-8.20603391 57.48066332 -2.1152548 52.90682584 1.42578125 45.65234375 C4.27202687 37.99554217 4.34379525 30.66051617 1.48828125 22.9921875 C-1.86246359 16.314378 -6.95420759 11.93197755 -13.6171875 8.7890625 C-25.35325584 5.09207691 -35.95109222 8.24973275 -44.62890625 16.41796875 Z M-114.6171875 83.7890625 C-118.87743959 109.92628476 -108.4112818 141.94030944 -93.3125 163.08984375 C-91.12419775 166.02790857 -88.89790792 168.92235291 -86.6171875 171.7890625 C-85.90949219 172.7275 -85.20179687 173.6659375 -84.47265625 174.6328125 C-83.86035156 175.344375 -83.24804688 176.0559375 -82.6171875 176.7890625 C-81.9571875 176.7890625 -81.2971875 176.7890625 -80.6171875 176.7890625 C-80.21886719 177.68818359 -80.21886719 177.68818359 -79.8125 178.60546875 C-77.65891599 182.53963039 -74.04007108 184.96566701 -70.6171875 187.7890625 C-69.98748047 188.31371094 -69.35777344 188.83835937 -68.70898438 189.37890625 C-66.55893767 191.1682871 -64.40177706 192.94871371 -62.2421875 194.7265625 C-61.52788574 195.31880615 -60.81358398 195.9110498 -60.07763672 196.52124023 C-59.4023291 197.07239502 -58.72702148 197.6235498 -58.03125 198.19140625 C-57.4223291 198.69148193 -56.8134082 199.19155762 -56.18603516 199.70678711 C-54.66046518 200.97834373 -54.66046518 200.97834373 -52.6171875 200.7890625 C-52.6171875 201.4490625 -52.6171875 202.1090625 -52.6171875 202.7890625 C-51.16714507 204.25548004 -51.16714507 204.25548004 -49.2421875 205.7890625 C-44.07679236 210.17182201 -39.36600812 214.96432823 -34.6171875 219.7890625 C-33.61785822 220.78973277 -32.61799413 221.78986978 -31.6171875 222.7890625 C-30.94191196 196.03198392 -30.94191196 196.03198392 -35.6171875 169.7890625 C-35.79910645 169.09651367 -35.98102539 168.40396484 -36.16845703 167.69042969 C-41.81358007 146.35095653 -52.41655056 128.68697636 -67.6171875 112.7890625 C-68.22691406 112.11617187 -68.83664063 111.44328125 -69.46484375 110.75 C-81.40643977 98.02243906 -97.88353482 88.57010612 -114.6171875 83.7890625 Z M21.7265625 111.40625 C20.60890859 112.53081076 19.49408097 113.65819136 18.3828125 114.7890625 C17.50625 115.67851562 16.6296875 116.56796875 15.7265625 117.484375 C-11.66574543 146.65905913 -16.5538062 184.59663365 -15.6171875 222.7890625 C-12.78305726 219.9576606 -9.95306948 217.12252204 -7.13671875 214.2734375 C-5.90108041 213.02860738 -4.66540268 211.78381635 -3.4296875 210.5390625 C-2.80126953 209.90226562 -2.17285156 209.26546875 -1.52539062 208.609375 C-0.92275391 208.00351562 -0.32011719 207.39765625 0.30078125 206.7734375 C0.84500732 206.22397461 1.3892334 205.67451172 1.94995117 205.10839844 C3.3828125 203.7890625 3.3828125 203.7890625 5.3828125 202.7890625 C5.3828125 202.1290625 5.3828125 201.4690625 5.3828125 200.7890625 C5.96981934 200.51521729 6.55682617 200.24137207 7.16162109 199.95922852 C9.31522616 198.82466827 11.0380992 197.60011587 12.921875 196.06640625 C13.90994141 195.26456909 13.90994141 195.26456909 14.91796875 194.4465332 C15.60761719 193.87894287 16.29726562 193.31135254 17.0078125 192.7265625 C17.71550781 192.14672607 18.42320312 191.56688965 19.15234375 190.96948242 C27.55983091 184.19739512 27.55983091 184.19739512 35.3828125 176.7890625 C35.3828125 176.1290625 35.3828125 175.4690625 35.3828125 174.7890625 C36.0428125 174.7890625 36.7028125 174.7890625 37.3828125 174.7890625 C44.28658895 166.96860204 49.5166046 157.96356912 54.3828125 148.7890625 C54.91777344 147.809375 55.45273438 146.8296875 56.00390625 145.8203125 C65.45643096 127.1607832 69.20707562 104.57881012 68.3828125 83.7890625 C51.89999837 83.7890625 32.6769961 100.62588606 21.7265625 111.40625 Z M-58.6171875 98.7890625 C-56.98559752 102.68623172 -54.32299805 105.54576278 -51.5546875 108.6640625 C-42.27111819 119.42140797 -35.62391915 131.2035848 -29.49414062 143.97070312 C-28.23034402 146.59118117 -26.92411727 149.18988757 -25.6171875 151.7890625 C-24.95052083 153.12239583 -24.28385417 154.45572917 -23.6171875 155.7890625 C-21.85221294 153.14160067 -20.66788546 150.62669358 -19.46191406 147.70043945 C-13.05876231 132.26440223 -4.76523626 119.20432418 6.3828125 106.7890625 C9.96372687 103.26711982 9.96372687 103.26711982 11.3828125 98.7890625 C0.33838021 88.57859754 -11.85782949 85.06691505 -26.49365234 85.33764648 C-39.57236506 85.87159969 -48.30423123 90.92243539 -58.6171875 98.7890625 Z " fill="#EFBB6C" transform="translate(195.6171875,65.2109375)"/>
<path d="M0 0 C1.66040039 1.0703125 1.66040039 1.0703125 3 3 C3.40405273 6.23046875 3.40405273 6.23046875 3.43359375 10.1875 C3.4388356 10.88641357 3.44407745 11.58532715 3.44947815 12.30541992 C3.45589447 13.78139926 3.45456631 15.25742975 3.44604492 16.73339844 C3.43752842 18.992461 3.46630538 21.24899945 3.49804688 23.5078125 C3.49965887 24.94270758 3.49908139 26.37760713 3.49609375 27.8125 C3.49794678 29.11832031 3.4997998 30.42414062 3.50170898 31.76953125 C3 35 3 35 1.16430664 36.9609375 C-1.89157263 38.42803532 -3.79476628 37.90582692 -7 37 C-9.45573175 34.54426825 -9.25466146 33.14754931 -9.30354309 29.79333496 C-9.30263168 29.08809692 -9.30172028 28.38285889 -9.30078125 27.65625 C-9.30506638 26.93135376 -9.3093515 26.20645752 -9.31376648 25.45959473 C-9.31951167 23.92636154 -9.32000864 22.3931011 -9.31567383 20.85986328 C-9.31251206 18.50896956 -9.33597461 16.15933192 -9.36132812 13.80859375 C-9.36360087 12.32031409 -9.36430473 10.83203104 -9.36328125 9.34375 C-9.372491 8.63851196 -9.38170074 7.93327393 -9.39118958 7.20666504 C-9.37231445 5.22460938 -9.37231445 5.22460938 -9 2 C-5.53076119 -0.31282587 -4.07794425 -0.42478586 0 0 Z " fill="#F2B967" transform="translate(175,9)"/>
<path d="M0 0 C8.04974314 2.6449156 14.16336877 9.74861971 18 17.125 C23.17110276 28.85591156 22.885484 38.83473462 19 51 C17.85971738 47.57915214 18.29292706 46.45734286 19 43 C19.06701506 40.56333235 19.08528021 38.12498258 19.0625 35.6875 C19.05347656 34.43324219 19.04445312 33.17898437 19.03515625 31.88671875 C19.02355469 30.93410156 19.01195312 29.98148438 19 29 C18.34 28.67 17.68 28.34 17 28 C15.13448574 31.58752742 13.57464072 35.27812193 12 39 C11.34 37.68 10.68 36.36 10 35 C9.67 37.31 9.34 39.62 9 42 C8.34 42 7.68 42 7 42 C7.061875 43.3921875 7.061875 43.3921875 7.125 44.8125 C7 48 7 48 5 51 C4.34 51 3.68 51 3 51 C3.2165625 50.31035156 3.433125 49.62070313 3.65625 48.91015625 C6.51983367 39.24556136 7.33935174 31.33977661 3 22 C1.46234737 19.51504351 -0.18736288 17.30253904 -2 15 C-1.34 15 -0.68 15 0 15 C0.33 14.01 0.66 13.02 1 12 C1.66 12.33 2.32 12.66 3 13 C2.01 14.485 2.01 14.485 1 16 C3.64752004 13.42215154 5.94432065 11.08351902 8 8 C5.1575146 6.42726432 5.1575146 6.42726432 2 6 C1.34 4.02 0.68 2.04 0 0 Z " fill="#E6B76F" transform="translate(192,64)"/>
<path d="M0 0 C2.99840973 0.69194071 4.39944014 1.22250535 6.4375 3.5625 C7.52249591 10.52455706 4.39504509 14.71775818 0.625 20.375 C-0.19581055 21.66180664 -0.19581055 21.66180664 -1.03320312 22.97460938 C-5.11627731 29.2650182 -5.11627731 29.2650182 -8.5625 31.5625 C-12.02561301 31.41820362 -13.90084135 31.16012717 -16.5 28.8125 C-17.91535459 25.81527852 -17.4994153 24.74273364 -16.5625 21.5625 C-15.28818304 18.99336572 -13.81614441 16.56538082 -12.3125 14.125 C-11.92964844 13.48240234 -11.54679688 12.83980469 -11.15234375 12.17773438 C-4.33716284 0.95206014 -4.33716284 0.95206014 0 0 Z " fill="#E7B76D" transform="translate(210.5625,21.4375)"/>
<path d="M0 0 C3.86816614 0.52071467 4.61840428 1.71222695 6.94775391 4.68383789 C9.06435008 7.53413978 11.10437785 10.41338097 13.0625 13.375 C13.67254883 14.24801758 13.67254883 14.24801758 14.29492188 15.13867188 C17.09026416 19.38101487 17.77570518 22.40309984 17.25 27.4375 C16.125 29.375 16.125 29.375 14.25 30.4375 C11.3125 30.875 11.3125 30.875 8.25 30.4375 C4.23833794 27.155994 1.75115946 22.79620784 -0.9375 18.4375 C-1.38802734 17.7259375 -1.83855469 17.014375 -2.30273438 16.28125 C-2.73263672 15.5903125 -3.16253906 14.899375 -3.60546875 14.1875 C-3.99371826 13.56359375 -4.38196777 12.9396875 -4.78198242 12.296875 C-5.81621771 10.31030855 -6.42878938 8.6554495 -6.75 6.4375 C-3.76265823 0.59860472 -3.76265823 0.59860472 0 0 Z " fill="#EABA70" transform="translate(132.75,21.5625)"/>
<path d="M0 0 C0.99 0.33 1.98 0.66 3 1 C3.19355213 8.65606218 3.3479743 15.66258031 1 23 C0.34 23 -0.32 23 -1 23 C-1 22.01 -1 21.02 -1 20 C-1.66 20.66 -2.32 21.32 -3 22 C-2.6814823 24.10820797 -2.6814823 24.10820797 -2 26 C-3.5778125 25.4740625 -3.5778125 25.4740625 -5.1875 24.9375 C-8.7954681 24.05029473 -10.52632489 23.94737118 -14 25 C-14 24.34 -14 23.68 -14 23 C-13.525625 22.5875 -13.05125 22.175 -12.5625 21.75 C-10.41260332 19.34211572 -10.34954602 17.14591416 -10 14 C-9.34 14 -8.68 14 -8 14 C-8 10.7 -8 7.4 -8 4 C-7.01 4.99 -6.02 5.98 -5 7 C-3.35 4.69 -1.7 2.38 0 0 Z " fill="#FAC06A" transform="translate(209,92)"/>
<path d="M0 0 C1.66918945 1.0637207 1.66918945 1.0637207 3 3 C3.26153286 5.51727719 3.3497922 7.78103966 3.29296875 10.29296875 C3.28872391 10.99899734 3.28447906 11.70502594 3.28010559 12.43244934 C3.26333034 14.68452303 3.22568243 16.93569742 3.1875 19.1875 C3.17245157 20.71548185 3.15876344 22.24347776 3.14648438 23.77148438 C3.11343089 27.51466872 3.06165832 31.25718196 3 35 C2.34 34.67 1.68 34.34 1 34 C0.67 23.77 0.34 13.54 0 3 C-1.98 3 -3.96 3 -6 3 C-6.33 13.56 -6.66 24.12 -7 35 C-7.66 35 -8.32 35 -9 35 C-9.07405887 30.33694962 -9.12855763 25.67424016 -9.16479492 21.01074219 C-9.17989814 19.42376749 -9.20038223 17.83683463 -9.22631836 16.25 C-9.26263595 13.97124927 -9.27971023 11.69304942 -9.29296875 9.4140625 C-9.30845261 8.70255035 -9.32393646 7.99103821 -9.33988953 7.25796509 C-9.34057617 5.25634766 -9.34057617 5.25634766 -9 2 C-5.53076119 -0.31282587 -4.07794425 -0.42478586 0 0 Z " fill="#E4C994" transform="translate(175,9)"/>
<path d="M0 0 C0.99 0 1.98 0 3 0 C3.22623438 4.56179717 3.42786876 9.12435985 3.625 13.6875 C3.68945312 14.98107422 3.75390625 16.27464844 3.8203125 17.60742188 C3.871875 18.85458984 3.9234375 20.10175781 3.9765625 21.38671875 C4.02893066 22.53358154 4.08129883 23.68044434 4.13525391 24.86206055 C3.99825415 28.04050429 3.36704973 30.15159091 2 33 C1.34 33 0.68 33 0 33 C-0.33 35.64 -0.66 38.28 -1 41 C-1.66 41 -2.32 41 -3 41 C-2.79503906 39.98164063 -2.59007812 38.96328125 -2.37890625 37.9140625 C-0.86091398 30.06266912 0.29872752 22.30243306 0.75 14.3125 C0.79439209 13.5714502 0.83878418 12.83040039 0.88452148 12.06689453 C1.07895029 7.89784665 0.84934917 4.08588429 0 0 Z " fill="#AE9266" transform="translate(262,148)"/>
<path d="M0 0 C0.66 0 1.32 0 2 0 C2 7.92 2 15.84 2 24 C-2 24 -2 24 -5 22 C-4.67 20.68 -4.34 19.36 -4 18 C-3.01 19.32 -2.02 20.64 -1 22 C-0.67 14.74 -0.34 7.48 0 0 Z " fill="#937E5F" transform="translate(164,265)"/>
<path d="M0 0 C0.66 0.33 1.32 0.66 2 1 C2 1.66 2 2.32 2 3 C2.99 3.33 3.98 3.66 5 4 C3.71451591 5.33929505 2.42141845 6.67128643 1.125 8 C0.40570313 8.7425 -0.31359375 9.485 -1.0546875 10.25 C-3 12 -3 12 -5 12 C-5.68359375 10.265625 -5.68359375 10.265625 -6 8 C-4.78515625 5.859375 -4.78515625 5.859375 -3.0625 3.75 C-2.49660156 3.04359375 -1.93070313 2.3371875 -1.34765625 1.609375 C-0.90292969 1.07828125 -0.45820313 0.5471875 0 0 Z " fill="#DEB26D" transform="translate(202,278)"/>
<path d="M0 0 C0.99 0.33 1.98 0.66 3 1 C2.2575 1.391875 1.515 1.78375 0.75 2.1875 C-2.107508 3.83880002 -2.107508 3.83880002 -3.8125 6.5 C-6.71224625 9.81399571 -9.80402301 10.88288924 -14 12 C-14.66 12 -15.32 12 -16 12 C-16.33 10.35 -16.66 8.7 -17 7 C-16.12730469 7.2475 -15.25460938 7.495 -14.35546875 7.75 C-9.94235815 8.07879986 -8.67148865 6.77339091 -5.3125 4 C-2.48828125 1.6875 -2.48828125 1.6875 0 0 Z " fill="#E4C390" transform="translate(137,146)"/>
<path d="M0 0 C-1.24010426 2.48020851 -2.14944738 2.71846769 -4.625 3.875 C-7.4711796 5.23154243 -10.18018691 6.67636348 -12.875 8.3125 C-14.421875 9.1478125 -14.421875 9.1478125 -16 10 C-16.66 9.67 -17.32 9.34 -18 9 C-5.71020856 -2.85510428 -5.71020856 -2.85510428 0 0 Z " fill="#DCBA82" transform="translate(161,61)"/>
<path d="M0 0 C1.7074998 1.28062485 3.37373596 2.61767557 5 4 C5 4.66 5 5.32 5 6 C5.66 6 6.32 6 7 6 C9.73397536 8.52892721 11.93063422 10.89595133 14 14 C10.88626628 12.50079488 7.87771795 10.91847864 5 9 C5 8.34 5 7.68 5 7 C4.360625 6.773125 3.72125 6.54625 3.0625 6.3125 C1 5 1 5 0.25 2.375 C0.1675 1.59125 0.085 0.8075 0 0 Z " fill="#CFB16F" transform="translate(108,236)"/>
<path d="M0 0 C0.66 0 1.32 0 2 0 C2 0.99 2 1.98 2 3 C2.66 3 3.32 3 4 3 C2.94124926 6.40312738 1.99097846 9.01353231 0 12 C-0.66 12 -1.32 12 -2 12 C-2 11.34 -2 10.68 -2 10 C-2.66 10 -3.32 10 -4 10 C-3.67 9.01 -3.34 8.02 -3 7 C-2.01 7 -1.02 7 0 7 C-0.185625 6.030625 -0.37125 5.06125 -0.5625 4.0625 C-0.706875 3.051875 -0.85125 2.04125 -1 1 C-0.67 0.67 -0.34 0.34 0 0 Z " fill="#E5BB77" transform="translate(206,112)"/>
<path d="M0 0 C0.66 0.99 1.32 1.98 2 3 C0.55746343 6.36591866 -1.33264727 8.51047079 -4 11 C-4.66 9.68 -5.32 8.36 -6 7 C-5.34 6.01 -4.68 5.02 -4 4 C-3.34 4 -2.68 4 -2 4 C-1.34 2.68 -0.68 1.36 0 0 Z " fill="#F9BF69" transform="translate(230,244)"/>
<path d="M0 0 C2 1 4 2 6 3 C6 3.66 6 4.32 6 5 C6.598125 5.268125 7.19625 5.53625 7.8125 5.8125 C9.97224808 6.98493467 11.35790256 8.19369282 13 10 C12.67 10.66 12.34 11.32 12 12 C7.58335198 8.96896704 3.58934136 6.02441304 0 2 C0 1.34 0 0.68 0 0 Z " fill="#E1C585" transform="translate(137,263)"/>
<path d="M0 0 C0.99 0.33 1.98 0.66 3 1 C3.6875 3.0625 3.6875 3.0625 4 5 C4.66 5 5.32 5 6 5 C7.7143618 6.95927063 9.38405168 8.95880212 11 11 C10.34 11.66 9.68 12.32 9 13 C8.51789063 12.44570313 8.03578125 11.89140625 7.5390625 11.3203125 C6.90742188 10.59585937 6.27578125 9.87140625 5.625 9.125 C4.99851563 8.40570313 4.37203125 7.68640625 3.7265625 6.9453125 C2.52573166 5.5923402 1.2791655 4.2791655 0 3 C0 2.01 0 1.02 0 0 Z " fill="#CAAC78" transform="translate(141,283)"/>
<path d="M0 0 C2.4377963 -0.05397335 4.87439685 -0.09365616 7.3125 -0.125 C8.00279297 -0.14175781 8.69308594 -0.15851563 9.40429688 -0.17578125 C13.17135396 -0.21217794 14.78431704 -0.14378864 18 2 C18 2.66 18 3.32 18 4 C16.88625 3.690625 15.7725 3.38125 14.625 3.0625 C9.79490988 1.84199336 4.95709931 1.38600363 0 1 C0 0.67 0 0.34 0 0 Z " fill="#9E875E" transform="translate(168,72)"/>
<path d="M0 0 C3.1875 -0.3125 3.1875 -0.3125 6 0 C6.33 0.66 6.66 1.32 7 2 C5.35 1.67 3.7 1.34 2 1 C2.66 2.32 3.32 3.64 4 5 C0.98968256 5.93423645 0.13349732 6.04449911 -3 5 C-1.875 2.5 -1.875 2.5 0 0 Z " fill="#F7C06C" transform="translate(130,24)"/>
<path d="M0 0 C0 0.66 0 1.32 0 2 C-2.25 3.75 -2.25 3.75 -5 5 C-7.3125 4.1875 -7.3125 4.1875 -9 3 C-6.38220849 -0.01046024 -3.86655673 -1.93327837 0 0 Z " fill="#E5AE67" transform="translate(143,171)"/>
<path d="M0 0 C0.66 0.33 1.32 0.66 2 1 C1.6875 4.375 1.6875 4.375 1 8 C0.01 8.66 -0.98 9.32 -2 10 C-2.33 9.01 -2.66 8.02 -3 7 C-2.34 7 -1.68 7 -1 7 C-1.020625 6.030625 -1.04125 5.06125 -1.0625 4.0625 C-1 1 -1 1 0 0 Z " fill="#DDB26E" transform="translate(245,240)"/>
<path d="M0 0 C0.66 0 1.32 0 2 0 C1.38909774 6.47556391 1.38909774 6.47556391 -0.4375 8.9375 C-2 10 -2 10 -4 10 C-3.52449439 8.51965236 -3.04448784 7.04074979 -2.5625 5.5625 C-2.29566406 4.73878906 -2.02882812 3.91507813 -1.75390625 3.06640625 C-1 1 -1 1 0 0 Z " fill="#E6C78E" transform="translate(181,201)"/>
<path d="M0 0 C1.32 0.33 2.64 0.66 4 1 C3.01 2.485 3.01 2.485 2 4 C1.34 4 0.68 4 0 4 C0 4.66 0 5.32 0 6 C-0.66 6 -1.32 6 -2 6 C-2 6.66 -2 7.32 -2 8 C-2.66 8 -3.32 8 -4 8 C-2.87548273 5.0280615 -1.77706209 2.66559313 0 0 Z " fill="#EDC88B" transform="translate(206,24)"/>
<path d="M0 0 C3.93673644 1.31224548 6.22719294 2.91910327 9 6 C8.67 6.66 8.34 7.32 8 8 C7.38125 7.67 6.7625 7.34 6.125 7 C4.08981656 5.85806765 4.08981656 5.85806765 2 6 C1.34 4.02 0.68 2.04 0 0 Z " fill="#DFBD82" transform="translate(192,64)"/>
<path d="M0 0 C1.41377341 2.63904371 2.37240135 5.07120629 3 8 C1.68 8 0.36 8 -1 8 C-1.33 7.34 -1.66 6.68 -2 6 C-1.34 6 -0.68 6 0 6 C-0.2784375 4.7934375 -0.2784375 4.7934375 -0.5625 3.5625 C-0.706875 2.716875 -0.85125 1.87125 -1 1 C-0.67 0.67 -0.34 0.34 0 0 Z " fill="#E3B55C" transform="translate(145,123)"/>
<path d="M0 0 C0.33 0 0.66 0 1 0 C1.34833144 4.87664009 0.41685712 7.77050005 -2 12 C-2.66 11.67 -3.32 11.34 -4 11 C-2.7874262 7.27566618 -1.49140021 3.62197194 0 0 Z " fill="#C3A777" transform="translate(254,203)"/>
<path d="M0 0 C1.04211409 3.12634226 0.99926113 4.04848841 0.25 7.125 C0.01023438 8.18074219 0.01023438 8.18074219 -0.234375 9.2578125 C-0.48703125 9.83273438 -0.7396875 10.40765625 -1 11 C-1.99 11.33 -2.98 11.66 -4 12 C-3.52494322 10.18641846 -3.04483958 8.37415821 -2.5625 6.5625 C-2.29566406 5.55316406 -2.02882812 4.54382813 -1.75390625 3.50390625 C-1 1 -1 1 0 0 Z " fill="#B29764" transform="translate(199,103)"/>
<path d="M0 0 C1 3 1 3 0.0625 5.1875 C-0.4634375 6.0846875 -0.4634375 6.0846875 -1 7 C-2.98 7 -4.96 7 -7 7 C-4.66666667 4.66666667 -2.33333333 2.33333333 0 0 Z " fill="#FAC372" transform="translate(256,135)"/>
<path d="M0 0 C0.33 0.66 0.66 1.32 1 2 C1.66 2.33 2.32 2.66 3 3 C2.67 3.99 2.34 4.98 2 6 C0.35 5.67 -1.3 5.34 -3 5 C-3 4.34 -3 3.68 -3 3 C-2.34 3 -1.68 3 -1 3 C-0.67 2.01 -0.34 1.02 0 0 Z " fill="#D0AF6E" transform="translate(172,327)"/>
<path d="M0 0 C0.99 0.33 1.98 0.66 3 1 C0.36 3.64 -2.28 6.28 -5 9 C-5.33 8.34 -5.66 7.68 -6 7 C-5.67 6.34 -5.34 5.68 -5 5 C-4.34 5 -3.68 5 -3 5 C-3 4.34 -3 3.68 -3 3 C-2.34 3 -1.68 3 -1 3 C-0.67 2.01 -0.34 1.02 0 0 Z " fill="#C6AD7C" transform="translate(220,171)"/>
<path d="M0 0 C0.66 0.33 1.32 0.66 2 1 C0.71567636 3.56864728 -0.36634751 3.946539 -3 5 C-4.32 5 -5.64 5 -7 5 C-7 4.34 -7 3.68 -7 3 C-4.69631264 1.93347808 -2.35981813 0.93578995 0 0 Z " fill="#D2B17A" transform="translate(159,60)"/>
<path d="M0 0 C2 0 2 0 3.3125 1.1875 C4.1478125 2.0846875 4.1478125 2.0846875 5 3 C5.886875 3.886875 6.77375 4.77375 7.6875 5.6875 C8.8321875 6.8321875 8.8321875 6.8321875 10 8 C6.12084756 7.42531075 3.85243395 5.62115553 1 3 C0.67 2.01 0.34 1.02 0 0 Z " fill="#EAC88E" transform="translate(128,272)"/>
<path d="M0 0 C0.33 0 0.66 0 1 0 C0.67 2.97 0.34 5.94 0 9 C-1.32 8.67 -2.64 8.34 -4 8 C-2.66666667 5.33333333 -1.33333333 2.66666667 0 0 Z " fill="#C8AE7E" transform="translate(175,214)"/>
<path d="M0 0 C0.66 0.33 1.32 0.66 2 1 C2 2.32 2 3.64 2 5 C2.2981424 6.34164079 2.62243192 7.67851173 3 9 C2.34 9 1.68 9 1 9 C-0.38938077 7.03852126 -1.7260411 5.03833424 -3 3 C-2.34 3 -1.68 3 -1 3 C-0.67 2.01 -0.34 1.02 0 0 Z " fill="#E2BF83" transform="translate(193,76)"/>
<path d="M0 0 C0.66 1.32 1.32 2.64 2 4 C0.68 4.99 -0.64 5.98 -2 7 C-2 3 -2 3 0 0 Z M2 1 C2.99 1.495 2.99 1.495 4 2 C3.01 2.495 3.01 2.495 2 3 C2 2.34 2 1.68 2 1 Z " fill="#D3AC70" transform="translate(241,228)"/>
<path d="M0 0 C0 0.99 0 1.98 0 3 C0.66 3 1.32 3 2 3 C2 3.66 2 4.32 2 5 C-3.75 3.25 -3.75 3.25 -6 1 C-3.92446352 0.4465236 -2.15634036 0 0 0 Z " fill="#D3AD75" transform="translate(103,154)"/>
<path d="M0 0 C0.66 0.33 1.32 0.66 2 1 C0.515 3.475 0.515 3.475 -1 6 C-1.99 5.67 -2.98 5.34 -4 5 C-3.6875 3.0625 -3.6875 3.0625 -3 1 C-2.01 0.67 -1.02 0.34 0 0 Z " fill="#E2B969" transform="translate(196,201)"/>
<path d="M0 0 C1.65 1.65 3.3 3.3 5 5 C2 6 2 6 -1 5 C-0.67 3.35 -0.34 1.7 0 0 Z " fill="#D5AF76" transform="translate(143,173)"/>
<path d="M0 0 C-0.33 0.99 -0.66 1.98 -1 3 C-2.65 3 -4.3 3 -6 3 C-6.33 2.01 -6.66 1.02 -7 0 C-2.25 -1.125 -2.25 -1.125 0 0 Z " fill="#F6C860" transform="translate(141,169)"/>
<path d="M0 0 C1.98 0.66 3.96 1.32 6 2 C6 2.66 6 3.32 6 4 C4.35 4.33 2.7 4.66 1 5 C0.67 3.35 0.34 1.7 0 0 Z " fill="#EECB82" transform="translate(120,153)"/>
<path d="M0 0 C0.66 0.33 1.32 0.66 2 1 C1.74438677 3.3431213 1.40729228 5.67843403 1 8 C0.01 8.495 0.01 8.495 -1 9 C-1.125 2.25 -1.125 2.25 0 0 Z " fill="#BC9865" transform="translate(145,87)"/>
<path d="M0 0 C2.32472205 2.85306797 3.7508258 5.54074837 5 9 C3.0625 8.4375 3.0625 8.4375 1 7 C0.25 3.375 0.25 3.375 0 0 Z " fill="#A6875D" transform="translate(157,191)"/>
<path d="M0 0 C2.97 0.495 2.97 0.495 6 1 C6 1.66 6 2.32 6 3 C3 5 3 5 0 5 C0 3.35 0 1.7 0 0 Z " fill="#D2B17C" transform="translate(215,153)"/>
<path d="M0 0 C3.82097239 0.53069061 6.06171403 1.49701566 9 4 C7.68 4.33 6.36 4.66 5 5 C4.67 4.01 4.34 3.02 4 2 C2.68 2 1.36 2 0 2 C0 1.34 0 0.68 0 0 Z " fill="#B59A6B" transform="translate(95,139)"/>
<path d="M0 0 C0.99 0.33 1.98 0.66 3 1 C3.33 2.65 3.66 4.3 4 6 C4.66 6 5.32 6 6 6 C6 6.66 6 7.32 6 8 C2.24623848 6.74874616 1.75926711 5.4347596 0 2 C0 1.34 0 0.68 0 0 Z " fill="#D6BB88" transform="translate(132,38)"/>
<path d="M0 0 C1.2065625 0.0309375 1.2065625 0.0309375 2.4375 0.0625 C2.4375 0.7225 2.4375 1.3825 2.4375 2.0625 C1.1175 2.0625 -0.2025 2.0625 -1.5625 2.0625 C-1.5625 4.0425 -1.5625 6.0225 -1.5625 8.0625 C-1.8925 8.0625 -2.2225 8.0625 -2.5625 8.0625 C-2.94313221 5.7364143 -3.27519945 3.40194736 -3.5625 1.0625 C-2.5625 0.0625 -2.5625 0.0625 0 0 Z " fill="#FCBC61" transform="translate(171.5625,10.9375)"/>
<path d="" fill="#000000" transform="translate(0,0)"/>
<path d="" fill="#000000" transform="translate(0,0)"/>
<path d="" fill="#000000" transform="translate(0,0)"/>
<path d="" fill="#000000" transform="translate(0,0)"/>
<path d="" fill="#000000" transform="translate(0,0)"/>
<path d="" fill="#000000" transform="translate(0,0)"/>
<path d="" fill="#000000" transform="translate(0,0)"/>
<path d="" fill="#000000" transform="translate(0,0)"/>
<path d="" fill="#000000" transform="translate(0,0)"/>
<path d="" fill="#000000" transform="translate(0,0)"/>
<path d="" fill="#000000" transform="translate(0,0)"/>
<path d="" fill="#000000" transform="translate(0,0)"/>
<path d="" fill="#000000" transform="translate(0,0)"/>
<path d="" fill="#000000" transform="translate(0,0)"/>
<path d="" fill="#000000" transform="translate(0,0)"/>
<path d="" fill="#000000" transform="translate(0,0)"/>
<path d="" fill="#000000" transform="translate(0,0)"/>
<path d="" fill="#000000" transform="translate(0,0)"/>
<path d="" fill="#000000" transform="translate(0,0)"/>
<path d="" fill="#000000" transform="translate(0,0)"/>
<path d="" fill="#000000" transform="translate(0,0)"/>
<path d="" fill="#000000" transform="translate(0,0)"/>
<path d="" fill="#000000" transform="translate(0,0)"/>
<path d="" fill="#000000" transform="translate(0,0)"/>
<path d="" fill="#000000" transform="translate(0,0)"/>
<path d="" fill="#000000" transform="translate(0,0)"/>
<path d="" fill="#000000" transform="translate(0,0)"/>
<path d="" fill="#000000" transform="translate(0,0)"/>
<path d="" fill="#000000" transform="translate(0,0)"/>
<path d="" fill="#000000" transform="translate(0,0)"/>
<path d="" fill="#000000" transform="translate(0,0)"/>
<path d="" fill="#000000" transform="translate(0,0)"/>
<path d="" fill="#000000" transform="translate(0,0)"/>
<path d="" fill="#000000" transform="translate(0,0)"/>
<path d="" fill="#000000" transform="translate(0,0)"/>
<path d="" fill="#000000" transform="translate(0,0)"/>
<path d="" fill="#000000" transform="translate(0,0)"/>
<path d="" fill="#000000" transform="translate(0,0)"/>
<path d="" fill="#000000" transform="translate(0,0)"/>
<path d="" fill="#000000" transform="translate(0,0)"/>
<path d="" fill="#000000" transform="translate(0,0)"/>
<path d="" fill="#000000" transform="translate(0,0)"/>
<path d="" fill="#000000" transform="translate(0,0)"/>
<path d="" fill="#000000" transform="translate(0,0)"/>
<path d="" fill="#000000" transform="translate(0,0)"/>
<path d="" fill="#000000" transform="translate(0,0)"/>
<path d="" fill="#000000" transform="translate(0,0)"/>
<path d="" fill="#000000" transform="translate(0,0)"/>
<path d="" fill="#000000" transform="translate(0,0)"/>
<path d="" fill="#000000" transform="translate(0,0)"/>
<path d="" fill="#000000" transform="translate(0,0)"/>
<path d="" fill="#000000" transform="translate(0,0)"/>
<path d="" fill="#000000" transform="translate(0,0)"/>
<path d="" fill="#000000" transform="translate(0,0)"/>
<path d="" fill="#000000" transform="translate(0,0)"/>
<path d="" fill="#000000" transform="translate(0,0)"/>
<path d="" fill="#000000" transform="translate(0,0)"/>
<path d="" fill="#000000" transform="translate(0,0)"/>
<path d="" fill="#000000" transform="translate(0,0)"/>
<path d="" fill="#000000" transform="translate(0,0)"/>
<path d="" fill="#000000" transform="translate(0,0)"/>
<path d="" fill="#000000" transform="translate(0,0)"/>
<path d="" fill="#000000" transform="translate(0,0)"/>
<path d="" fill="#000000" transform="translate(0,0)"/>
<path d="" fill="#000000" transform="translate(0,0)"/>
<path d="" fill="#000000" transform="translate(0,0)"/>
<path d="" fill="#000000" transform="translate(0,0)"/>
<path d="" fill="#000000" transform="translate(0,0)"/>
<path d="" fill="#000000" transform="translate(0,0)"/>
<path d="" fill="#000000" transform="translate(0,0)"/>
<path d="" fill="#000000" transform="translate(0,0)"/>
<path d="" fill="#000000" transform="translate(0,0)"/>
<path d="" fill="#000000" transform="translate(0,0)"/>
<path d="" fill="#000000" transform="translate(0,0)"/>
<path d="" fill="#000000" transform="translate(0,0)"/>
<path d="" fill="#000000" transform="translate(0,0)"/>
<path d="" fill="#000000" transform="translate(0,0)"/>
<path d="" fill="#000000" transform="translate(0,0)"/>
<path d="" fill="#000000" transform="translate(0,0)"/>
<path d="" fill="#000000" transform="translate(0,0)"/>
<path d="" fill="#000000" transform="translate(0,0)"/>
<path d="" fill="#000000" transform="translate(0,0)"/>
<path d="" fill="#000000" transform="translate(0,0)"/>
<path d="" fill="#000000" transform="translate(0,0)"/>
<path d="" fill="#000000" transform="translate(0,0)"/>
<path d="" fill="#000000" transform="translate(0,0)"/>
<path d="" fill="#000000" transform="translate(0,0)"/>
<path d="" fill="#000000" transform="translate(0,0)"/>
<path d="" fill="#000000" transform="translate(0,0)"/>
<path d="" fill="#000000" transform="translate(0,0)"/>
<path d="" fill="#000000" transform="translate(0,0)"/>
<path d="" fill="#000000" transform="translate(0,0)"/>
<path d="" fill="#000000" transform="translate(0,0)"/>
<path d="" fill="#000000" transform="translate(0,0)"/>
<path d="" fill="#000000" transform="translate(0,0)"/>
<path d="" fill="#000000" transform="translate(0,0)"/>
<path d="" fill="#000000" transform="translate(0,0)"/>
<path d="" fill="#000000" transform="translate(0,0)"/>
<path d="" fill="#000000" transform="translate(0,0)"/>
<path d="" fill="#000000" transform="translate(0,0)"/>
<path d="" fill="#000000" transform="translate(0,0)"/>
<path d="" fill="#000000" transform="translate(0,0)"/>
<path d="" fill="#000000" transform="translate(0,0)"/>
<path d="" fill="#000000" transform="translate(0,0)"/>
<path d="" fill="#000000" transform="translate(0,0)"/>
<path d="" fill="#000000" transform="translate(0,0)"/>
<path d="" fill="#000000" transform="translate(0,0)"/>
<path d="" fill="#000000" transform="translate(0,0)"/>
<path d="" fill="#000000" transform="translate(0,0)"/>
<path d="" fill="#000000" transform="translate(0,0)"/>
<path d="" fill="#000000" transform="translate(0,0)"/>
<path d="" fill="#000000" transform="translate(0,0)"/>
<path d="" fill="#000000" transform="translate(0,0)"/>
<path d="" fill="#000000" transform="translate(0,0)"/>
<path d="" fill="#000000" transform="translate(0,0)"/>
<path d="" fill="#000000" transform="translate(0,0)"/>
<path d="" fill="#000000" transform="translate(0,0)"/>
<path d="" fill="#000000" transform="translate(0,0)"/>
<path d="" fill="#000000" transform="translate(0,0)"/>
<path d="" fill="#000000" transform="translate(0,0)"/>
<path d="" fill="#000000" transform="translate(0,0)"/>
<path d="" fill="#000000" transform="translate(0,0)"/>
<path d="" fill="#000000" transform="translate(0,0)"/>
<path d="" fill="#000000" transform="translate(0,0)"/>
<path d="" fill="#000000" transform="translate(0,0)"/>
<path d="" fill="#000000" transform="translate(0,0)"/>
<path d="" fill="#000000" transform="translate(0,0)"/>
<path d="" fill="#000000" transform="translate(0,0)"/>
<path d="" fill="#000000" transform="translate(0,0)"/>
<path d="" fill="#000000" transform="translate(0,0)"/>
<path d="" fill="#000000" transform="translate(0,0)"/>
<path d="" fill="#000000" transform="translate(0,0)"/>
<path d="" fill="#000000" transform="translate(0,0)"/>
<path d="" fill="#000000" transform="translate(0,0)"/>
<path d="" fill="#000000" transform="translate(0,0)"/>
<path d="" fill="#000000" transform="translate(0,0)"/>
<path d="" fill="#000000" transform="translate(0,0)"/>
<path d="" fill="#000000" transform="translate(0,0)"/>
<path d="" fill="#000000" transform="translate(0,0)"/>
<path d="" fill="#000000" transform="translate(0,0)"/>
<path d="" fill="#000000" transform="translate(0,0)"/>
<path d="" fill="#000000" transform="translate(0,0)"/>
<path d="" fill="#000000" transform="translate(0,0)"/>
<path d="" fill="#000000" transform="translate(0,0)"/>
<path d="" fill="#000000" transform="translate(0,0)"/>
<path d="" fill="#000000" transform="translate(0,0)"/>
<path d="" fill="#000000" transform="translate(0,0)"/>
<path d="" fill="#000000" transform="translate(0,0)"/>
<path d="" fill="#000000" transform="translate(0,0)"/>
<path d="" fill="#000000" transform="translate(0,0)"/>
<path d="" fill="#000000" transform="translate(0,0)"/>
<path d="" fill="#000000" transform="translate(0,0)"/>
<path d="" fill="#000000" transform="translate(0,0)"/>
<path d="" fill="#000000" transform="translate(0,0)"/>
<path d="" fill="#000000" transform="translate(0,0)"/>
<path d="" fill="#000000" transform="translate(0,0)"/>
<path d="" fill="#000000" transform="translate(0,0)"/>
<path d="" fill="#000000" transform="translate(0,0)"/>
<path d="" fill="#000000" transform="translate(0,0)"/>
<path d="" fill="#000000" transform="translate(0,0)"/>
<path d="" fill="#000000" transform="translate(0,0)"/>
<path d="" fill="#000000" transform="translate(0,0)"/>
<path d="" fill="#000000" transform="translate(0,0)"/>
<path d="" fill="#000000" transform="translate(0,0)"/>
<path d="" fill="#000000" transform="translate(0,0)"/>
<path d="" fill="#000000" transform="translate(0,0)"/>
<path d="" fill="#000000" transform="translate(0,0)"/>
<path d="" fill="#000000" transform="translate(0,0)"/>
<path d="" fill="#000000" transform="translate(0,0)"/>
<path d="" fill="#000000" transform="translate(0,0)"/>
<path d="" fill="#000000" transform="translate(0,0)"/>
<path d="" fill="#000000" transform="translate(0,0)"/>
<path d="" fill="#000000" transform="translate(0,0)"/>
<path d="" fill="#000000" transform="translate(0,0)"/>
<path d="" fill="#000000" transform="translate(0,0)"/>
<path d="" fill="#000000" transform="translate(0,0)"/>
<path d="" fill="#000000" transform="translate(0,0)"/>
<path d="" fill="#000000" transform="translate(0,0)"/>
<path d="" fill="#000000" transform="translate(0,0)"/>
<path d="" fill="#000000" transform="translate(0,0)"/>
<path d="" fill="#000000" transform="translate(0,0)"/>
<path d="" fill="#000000" transform="translate(0,0)"/>
<path d="" fill="#000000" transform="translate(0,0)"/>
<path d="" fill="#000000" transform="translate(0,0)"/>
<path d="" fill="#000000" transform="translate(0,0)"/>
<path d="" fill="#000000" transform="translate(0,0)"/>
<path d="" fill="#000000" transform="translate(0,0)"/>
<path d="" fill="#000000" transform="translate(0,0)"/>
<path d="" fill="#000000" transform="translate(0,0)"/>
<path d="" fill="#000000" transform="translate(0,0)"/>
<path d="" fill="#000000" transform="translate(0,0)"/>
<path d="" fill="#000000" transform="translate(0,0)"/>
<path d="" fill="#000000" transform="translate(0,0)"/>
<path d="" fill="#000000" transform="translate(0,0)"/>
<path d="" fill="#000000" transform="translate(0,0)"/>
<path d="" fill="#000000" transform="translate(0,0)"/>
<path d="" fill="#000000" transform="translate(0,0)"/>
<path d="" fill="#000000" transform="translate(0,0)"/>
<path d="" fill="#000000" transform="translate(0,0)"/>
<path d="" fill="#000000" transform="translate(0,0)"/>
<path d="" fill="#000000" transform="translate(0,0)"/>
<path d="" fill="#000000" transform="translate(0,0)"/>
<path d="" fill="#000000" transform="translate(0,0)"/>
<path d="" fill="#000000" transform="translate(0,0)"/>
<path d="" fill="#000000" transform="translate(0,0)"/>
<path d="" fill="#000000" transform="translate(0,0)"/>
<path d="" fill="#000000" transform="translate(0,0)"/>
<path d="" fill="#000000" transform="translate(0,0)"/>
<path d="" fill="#000000" transform="translate(0,0)"/>
<path d="" fill="#000000" transform="translate(0,0)"/>
<path d="" fill="#000000" transform="translate(0,0)"/>
<path d="" fill="#000000" transform="translate(0,0)"/>
<path d="" fill="#000000" transform="translate(0,0)"/>
<path d="" fill="#000000" transform="translate(0,0)"/>
<path d="" fill="#000000" transform="translate(0,0)"/>
<path d="" fill="#000000" transform="translate(0,0)"/>
<path d="" fill="#000000" transform="translate(0,0)"/>
<path d="" fill="#000000" transform="translate(0,0)"/>
<path d="" fill="#000000" transform="translate(0,0)"/>
<path d="" fill="#000000" transform="translate(0,0)"/>
<path d="" fill="#000000" transform="translate(0,0)"/>
<path d="" fill="#000000" transform="translate(0,0)"/>
<path d="" fill="#000000" transform="translate(0,0)"/>
<path d="" fill="#000000" transform="translate(0,0)"/>
<path d="" fill="#000000" transform="translate(0,0)"/>
<path d="" fill="#000000" transform="translate(0,0)"/>
<path d="" fill="#000000" transform="translate(0,0)"/>
<path d="" fill="#000000" transform="translate(0,0)"/>
<path d="" fill="#000000" transform="translate(0,0)"/>
<path d="" fill="#000000" transform="translate(0,0)"/>
<path d="" fill="#000000" transform="translate(0,0)"/>
<path d="" fill="#000000" transform="translate(0,0)"/>
<path d="" fill="#000000" transform="translate(0,0)"/>
<path d="" fill="#000000" transform="translate(0,0)"/>
<path d="" fill="#000000" transform="translate(0,0)"/>
<path d="" fill="#000000" transform="translate(0,0)"/>
<path d="" fill="#000000" transform="translate(0,0)"/>
<path d="" fill="#000000" transform="translate(0,0)"/>
<path d="" fill="#000000" transform="translate(0,0)"/>
<path d="" fill="#000000" transform="translate(0,0)"/>
<path d="" fill="#000000" transform="translate(0,0)"/>
<path d="" fill="#000000" transform="translate(0,0)"/>
<path d="" fill="#000000" transform="translate(0,0)"/>
<path d="" fill="#000000" transform="translate(0,0)"/>
<path d="" fill="#000000" transform="translate(0,0)"/>
<path d="" fill="#000000" transform="translate(0,0)"/>
<path d="" fill="#000000" transform="translate(0,0)"/>
<path d="" fill="#000000" transform="translate(0,0)"/>
<path d="" fill="#000000" transform="translate(0,0)"/>
<path d="" fill="#000000" transform="translate(0,0)"/>
<path d="" fill="#000000" transform="translate(0,0)"/>
<path d="" fill="#000000" transform="translate(0,0)"/>
<path d="" fill="#000000" transform="translate(0,0)"/>
<path d="" fill="#000000" transform="translate(0,0)"/>
<path d="" fill="#000000" transform="translate(0,0)"/>
<path d="" fill="#000000" transform="translate(0,0)"/>
<path d="" fill="#000000" transform="translate(0,0)"/>
<path d="" fill="#000000" transform="translate(0,0)"/>
<path d="" fill="#000000" transform="translate(0,0)"/>
<path d="" fill="#000000" transform="translate(0,0)"/>
<path d="" fill="#000000" transform="translate(0,0)"/>
<path d="" fill="#000000" transform="translate(0,0)"/>
<path d="" fill="#000000" transform="translate(0,0)"/>
<path d="" fill="#000000" transform="translate(0,0)"/>
<path d="" fill="#000000" transform="translate(0,0)"/>
<path d="" fill="#000000" transform="translate(0,0)"/>
<path d="" fill="#000000" transform="translate(0,0)"/>
<path d="" fill="#000000" transform="translate(0,0)"/>
<path d="" fill="#000000" transform="translate(0,0)"/>
<path d="" fill="#000000" transform="translate(0,0)"/>
<path d="" fill="#000000" transform="translate(0,0)"/>
<path d="" fill="#000000" transform="translate(0,0)"/>
<path d="" fill="#000000" transform="translate(0,0)"/>
<path d="" fill="#000000" transform="translate(0,0)"/>
<path d="" fill="#000000" transform="translate(0,0)"/>
<path d="" fill="#000000" transform="translate(0,0)"/>
<path d="" fill="#000000" transform="translate(0,0)"/>
<path d="" fill="#000000" transform="translate(0,0)"/>
<path d="" fill="#000000" transform="translate(0,0)"/>
<path d="" fill="#000000" transform="translate(0,0)"/>
<path d="" fill="#000000" transform="translate(0,0)"/>
<path d="" fill="#000000" transform="translate(0,0)"/>
<path d="" fill="#000000" transform="translate(0,0)"/>
<path d="" fill="#000000" transform="translate(0,0)"/>
<path d="" fill="#000000" transform="translate(0,0)"/>
<path d="" fill="#000000" transform="translate(0,0)"/>
<path d="" fill="#000000" transform="translate(0,0)"/>
<path d="" fill="#000000" transform="translate(0,0)"/>
<path d="" fill="#000000" transform="translate(0,0)"/>
<path d="" fill="#000000" transform="translate(0,0)"/>
<path d="" fill="#000000" transform="translate(0,0)"/>
<path d="" fill="#000000" transform="translate(0,0)"/>
<path d="" fill="#000000" transform="translate(0,0)"/>
<path d="" fill="#000000" transform="translate(0,0)"/>
<path d="" fill="#000000" transform="translate(0,0)"/>
<path d="" fill="#000000" transform="translate(0,0)"/>
<path d="" fill="#000000" transform="translate(0,0)"/>
<path d="" fill="#000000" transform="translate(0,0)"/>
<path d="" fill="#000000" transform="translate(0,0)"/>
<path d="" fill="#000000" transform="translate(0,0)"/>
<path d="" fill="#000000" transform="translate(0,0)"/>
<path d="" fill="#000000" transform="translate(0,0)"/>
<path d="" fill="#000000" transform="translate(0,0)"/>
<path d="" fill="#000000" transform="translate(0,0)"/>
<path d="" fill="#000000" transform="translate(0,0)"/>
<path d="" fill="#000000" transform="translate(0,0)"/>
<path d="" fill="#000000" transform="translate(0,0)"/>
<path d="" fill="#000000" transform="translate(0,0)"/>
<path d="" fill="#000000" transform="translate(0,0)"/>
<path d="" fill="#000000" transform="translate(0,0)"/>
<path d="" fill="#000000" transform="translate(0,0)"/>
<path d="" fill="#000000" transform="translate(0,0)"/>
<path d="" fill="#000000" transform="translate(0,0)"/>
<path d="" fill="#000000" transform="translate(0,0)"/>
<path d="" fill="#000000" transform="translate(0,0)"/>
<path d="" fill="#000000" transform="translate(0,0)"/>
<path d="" fill="#000000" transform="translate(0,0)"/>
<path d="" fill="#000000" transform="translate(0,0)"/>
<path d="" fill="#000000" transform="translate(0,0)"/>
<path d="" fill="#000000" transform="translate(0,0)"/>
<path d="" fill="#000000" transform="translate(0,0)"/>
<path d="" fill="#000000" transform="translate(0,0)"/>
<path d="" fill="#000000" transform="translate(0,0)"/>
<path d="" fill="#000000" transform="translate(0,0)"/>
<path d="" fill="#000000" transform="translate(0,0)"/>
<path d="" fill="#000000" transform="translate(0,0)"/>
<path d="" fill="#000000" transform="translate(0,0)"/>
<path d="" fill="#000000" transform="translate(0,0)"/>
</svg>
